<svg xmlns="http://www.w3.org/2000/svg" viewBox="0 -0.5 16 16" shape-rendering="crispEdges">
<metadata>Made with Pixels to Svg https://codepen.io/shshaw/pen/XbxvNj</metadata>
<path stroke="#10121c" d="M1 0h1M13 0h1M0 1h1M14 1h1M15 2h1M15 7h1M0 8h1M15 8h1M0 9h1M15 9h1M0 10h1M15 10h1M0 11h1M15 11h1M1 12h3M15 12h1M4 13h2M14 13h1M5 14h2M13 14h2M7 15h7" />
<path stroke="#2c1e31" d="M2 0h3M1 1h1M4 1h2M0 2h1M14 2h1M5 3h3M15 3h1M3 4h6M15 4h1M3 5h3M7 5h5M0 6h1M2 6h3M11 6h2M14 6h1M0 7h5M13 7h2M2 8h3M8 8h2M14 8h1M3 9h1" />
<path stroke="#4d3533" d="M5 0h5M12 0h1M2 1h2M6 1h6M13 1h1M1 2h13M0 3h5M8 3h7M0 4h3M9 4h6M0 5h3M12 5h4M1 6h1M13 6h1M15 6h1M8 9h2M14 9h1M8 10h2M14 10h1" />
<path stroke="#a26d3f" d="M10 0h2M12 1h1" />
<path stroke="#ffa2ac" d="M6 5h1M6 6h5M6 7h4M1 8h1M6 8h1M1 9h1M5 9h2M1 10h1M5 10h2M1 11h2M4 11h4M14 11h1M4 12h3M14 12h1M6 13h1M13 13h1M11 14h2" />
<path stroke="#ffd1d5" d="M5 6h1M5 7h1M10 7h3M5 8h1M10 8h3M4 9h1M10 9h3M2 10h3M10 10h3M8 11h6M7 12h7M7 13h6M7 14h4" />
<path stroke="#cbdbfc" d="M7 8h1M13 8h1" />
<path stroke="#fa6e79" d="M2 9h1" />
<path stroke="#ffffff" d="M7 9h1M13 9h1M7 10h1M13 10h1" />
<path stroke="#6b2643" d="M3 11h1" />
</svg>