<svg xmlns="http://www.w3.org/2000/svg" viewBox="0 -0.5 16 16" shape-rendering="crispEdges">
<metadata>Made with Pixels to Svg https://codepen.io/shshaw/pen/XbxvNj</metadata>
<path stroke="#525162" d="M6 0h4M4 1h2M10 1h2M3 2h1M12 2h1M2 3h1M13 3h1M1 4h1M14 4h1M1 5h1M7 5h2M14 5h1M0 6h1M9 6h1M15 6h1M0 7h1M10 7h1M15 7h1M0 8h1M15 8h1M0 9h1M15 9h1M1 10h1M14 10h1M1 11h1M14 11h1M2 12h1M13 12h1M3 13h1M12 13h1M4 14h2M10 14h2M6 15h4" />
<path stroke="#b9cbc9" d="M6 1h4M4 2h6M4 3h8M4 4h9M5 5h2M9 5h4M10 6h5M11 7h4M11 8h4M5 9h1M10 9h5M6 10h1M9 10h1M12 10h2M7 11h2" />
<path stroke="#ffffff" d="M10 2h2M12 3h1M13 4h1M13 5h1M2 11h1M3 12h1M4 13h1" />
<path stroke="#749593" d="M3 3h1M2 4h2M2 5h3M1 6h1M3 6h3M1 7h1M3 7h2M1 8h1M3 8h2M1 9h1M3 9h2M2 10h1M4 10h2M10 10h2M3 11h1M5 11h2M9 11h5M4 12h1M6 12h7M5 13h1M10 13h2M6 14h4" />
<path stroke="#446668" d="M2 6h1M6 6h1M2 7h1M5 7h1M2 8h1M2 9h1M3 10h1M4 11h1M5 12h1M6 13h4" />
<path stroke="#ffe629" d="M7 6h2M6 7h4M5 8h6M6 9h4M7 10h2" />
</svg>