<svg xmlns="http://www.w3.org/2000/svg" viewBox="0 -0.5 64 64" shape-rendering="crispEdges">
<metadata>Made with Pixels to Svg https://codepen.io/shshaw/pen/XbxvNj</metadata>
<path stroke="#000000" d="M27 2h11M23 3h4M38 3h4M21 4h2M42 4h2M18 5h3M27 5h11M44 5h3M17 6h1M24 6h3M38 6h3M47 6h1M15 7h2M21 7h3M41 7h3M48 7h2M14 8h1M19 8h2M28 8h9M44 8h2M50 8h1M13 9h1M18 9h1M24 9h4M37 9h4M46 9h1M51 9h1M12 10h1M16 10h2M22 10h2M41 10h2M47 10h2M52 10h1M11 11h1M15 11h1M20 11h2M28 11h9M43 11h2M49 11h1M53 11h1M10 12h1M14 12h1M19 12h1M25 12h3M37 12h3M45 12h1M50 12h1M54 12h1M9 13h1M13 13h1M17 13h2M23 13h2M40 13h2M46 13h2M51 13h1M55 13h1M8 14h1M12 14h1M16 14h1M21 14h2M28 14h9M42 14h2M48 14h1M52 14h1M56 14h1M7 15h1M11 15h1M15 15h1M20 15h1M25 15h3M37 15h3M44 15h1M49 15h1M53 15h1M57 15h1M7 16h1M10 16h1M14 16h1M18 16h2M23 16h2M40 16h2M45 16h2M50 16h1M54 16h1M57 16h1M6 17h1M10 17h1M13 17h1M17 17h1M22 17h1M29 17h7M42 17h1M47 17h1M51 17h1M54 17h1M58 17h1M5 18h1M9 18h1M13 18h1M16 18h1M21 18h1M26 18h3M36 18h3M43 18h1M48 18h1M51 18h1M55 18h1M59 18h1M5 19h1M8 19h1M12 19h1M16 19h1M20 19h1M24 19h2M39 19h2M44 19h1M48 19h1M52 19h1M56 19h1M59 19h1M5 20h1M8 20h1M11 20h1M15 20h1M19 20h1M23 20h1M29 20h7M41 20h1M45 20h1M49 20h1M53 20h1M56 20h1M59 20h1M4 21h1M7 21h1M11 21h1M14 21h1M18 21h1M22 21h1M27 21h2M36 21h2M42 21h1M46 21h1M50 21h1M53 21h1M57 21h1M60 21h1M4 22h1M7 22h1M10 22h1M14 22h1M17 22h1M21 22h1M25 22h2M38 22h2M43 22h1M47 22h1M50 22h1M54 22h1M57 22h1M60 22h1M3 23h1M7 23h1M10 23h1M13 23h1M16 23h1M20 23h1M24 23h1M40 23h1M44 23h1M48 23h1M51 23h1M54 23h1M57 23h1M61 23h1M3 24h1M6 24h1M9 24h1M13 24h1M16 24h1M19 24h1M23 24h1M41 24h1M45 24h1M48 24h1M51 24h1M55 24h1M58 24h1M61 24h1M3 25h1M6 25h1M9 25h1M12 25h1M15 25h1M19 25h1M22 25h1M42 25h1M45 25h1M49 25h1M52 25h1M55 25h1M58 25h1M61 25h1M3 26h1M6 26h1M9 26h1M12 26h1M15 26h1M18 26h1M22 26h1M42 26h1M46 26h1M49 26h1M52 26h1M55 26h1M58 26h1M61 26h1M2 27h1M5 27h1M9 27h1M12 27h1M15 27h1M18 27h1M21 27h1M43 27h1M46 27h1M49 27h1M52 27h1M55 27h1M59 27h1M62 27h1M2 28h1M5 28h1M8 28h1M11 28h1M14 28h1M18 28h1M21 28h1M43 28h1M46 28h1M50 28h1M53 28h1M56 28h1M59 28h1M62 28h1M2 29h1M5 29h1M8 29h1M11 29h1M14 29h1M17 29h1M20 29h1M44 29h1M47 29h1M50 29h1M53 29h1M56 29h1M59 29h1M62 29h1M2 30h1M5 30h1M8 30h1M11 30h1M14 30h1M17 30h1M20 30h1M44 30h1M47 30h1M50 30h1M53 30h1M56 30h1M59 30h1M62 30h1M2 31h1M5 31h1M8 31h1M11 31h1M14 31h1M17 31h1M20 31h1M44 31h1M47 31h1M50 31h1M53 31h1M56 31h1M59 31h1M62 31h1M2 32h1M5 32h1M8 32h1M11 32h1M14 32h1M17 32h1M20 32h1M44 32h1M47 32h1M50 32h1M53 32h1M56 32h1M59 32h1M62 32h1M2 33h1M5 33h1M8 33h1M11 33h1M14 33h1M17 33h1M20 33h1M44 33h1M47 33h1M50 33h1M53 33h1M56 33h1M59 33h1M62 33h1M2 34h1M5 34h1M8 34h1M11 34h1M14 34h1M17 34h1M20 34h1M44 34h1M47 34h1M50 34h1M53 34h1M56 34h1M59 34h1M62 34h1M2 35h1M5 35h1M8 35h1M11 35h1M14 35h1M17 35h1M20 35h1M44 35h1M47 35h1M50 35h1M53 35h1M56 35h1M59 35h1M62 35h1M2 36h1M5 36h1M8 36h1M11 36h1M14 36h1M18 36h1M21 36h1M43 36h1M46 36h1M50 36h1M53 36h1M56 36h1M59 36h1M62 36h1M2 37h1M5 37h1M9 37h1M12 37h1M15 37h1M18 37h1M21 37h1M43 37h1M46 37h1M49 37h1M52 37h1M55 37h1M59 37h1M62 37h1M3 38h1M6 38h1M9 38h1M12 38h1M15 38h1M18 38h1M22 38h1M42 38h1M46 38h1M49 38h1M52 38h1M55 38h1M58 38h1M61 38h1M3 39h1M6 39h1M9 39h1M12 39h1M15 39h1M19 39h1M22 39h1M42 39h1M45 39h1M49 39h1M52 39h1M55 39h1M58 39h1M61 39h1M3 40h1M6 40h1M9 40h1M13 40h1M16 40h1M19 40h1M23 40h1M41 40h1M45 40h1M48 40h1M51 40h1M55 40h1M58 40h1M61 40h1M3 41h1M7 41h1M10 41h1M13 41h1M16 41h1M20 41h1M24 41h1M40 41h1M44 41h1M48 41h1M51 41h1M54 41h1M57 41h1M61 41h1M4 42h1M7 42h1M10 42h1M14 42h1M17 42h1M21 42h1M25 42h2M38 42h2M43 42h1M47 42h1M50 42h1M54 42h1M57 42h1M60 42h1M4 43h1M7 43h1M11 43h1M14 43h1M18 43h1M22 43h1M27 43h2M36 43h2M42 43h1M46 43h1M50 43h1M53 43h1M57 43h1M60 43h1M5 44h1M8 44h1M11 44h1M15 44h1M19 44h1M23 44h1M29 44h7M41 44h1M45 44h1M49 44h1M53 44h1M56 44h1M59 44h1M5 45h1M8 45h1M12 45h1M16 45h1M20 45h1M24 45h2M39 45h2M44 45h1M48 45h1M52 45h1M56 45h1M59 45h1M5 46h1M9 46h1M13 46h1M16 46h1M21 46h1M26 46h3M36 46h3M43 46h1M48 46h1M51 46h1M55 46h1M59 46h1M6 47h1M10 47h1M13 47h1M17 47h1M22 47h1M29 47h7M42 47h1M47 47h1M51 47h1M54 47h1M58 47h1M7 48h1M10 48h1M14 48h1M18 48h2M23 48h2M40 48h2M45 48h2M50 48h1M54 48h1M57 48h1M7 49h1M11 49h1M15 49h1M20 49h1M25 49h3M37 49h3M44 49h1M49 49h1M53 49h1M57 49h1M8 50h1M12 50h1M16 50h1M21 50h2M28 50h9M42 50h2M48 50h1M52 50h1M56 50h1M9 51h1M13 51h1M17 51h2M23 51h2M40 51h2M46 51h2M51 51h1M55 51h1M10 52h1M14 52h1M19 52h1M25 52h3M37 52h3M45 52h1M50 52h1M54 52h1M11 53h1M15 53h1M20 53h2M28 53h9M43 53h2M49 53h1M53 53h1M12 54h1M16 54h2M22 54h2M41 54h2M47 54h2M52 54h1M13 55h1M18 55h1M24 55h4M37 55h4M46 55h1M51 55h1M14 56h1M19 56h2M28 56h9M44 56h2M50 56h1M15 57h2M21 57h3M41 57h3M48 57h2M17 58h1M24 58h3M38 58h3M47 58h1M18 59h3M27 59h11M44 59h3M21 60h2M42 60h2M23 61h4M38 61h4M27 62h11" />
<path stroke="#36464d" d="M27 3h2M36 3h2M25 4h4M36 4h4M26 5h1M38 5h1M27 6h3M35 6h3M28 7h2M35 7h2M28 9h3M34 9h3M29 10h2M34 10h2M29 12h2M34 12h2M30 13h1M34 13h1M30 15h1M34 15h1M31 16h1M33 16h1M31 18h1M33 18h1M32 19h1M32 45h1M31 46h1M33 46h1M31 48h1M33 48h1M30 49h1M34 49h1M30 51h1M34 51h1M29 52h2M34 52h2M29 54h2M34 54h2M28 55h3M34 55h3M28 57h2M35 57h2M27 58h3M35 58h3M26 59h1M38 59h1M25 60h4M36 60h4M27 61h2M36 61h2" />
<path stroke="#577075" d="M29 3h7M29 4h7M30 6h5M30 7h5M31 9h3M31 10h3M31 12h3M31 13h3M31 15h3M32 16h1M32 18h1M32 46h1M32 48h1M31 49h3M31 51h3M31 52h3M31 54h3M31 55h3M30 57h5M30 58h5M29 60h7M29 61h7" />
<path stroke="#1e2e36" d="M23 4h2M40 4h2M23 5h3M39 5h3M21 6h3M41 6h3M24 7h4M37 7h4M22 8h6M37 8h6M22 9h2M41 9h2M24 10h5M36 10h5M23 11h5M37 11h5M24 12h1M28 12h1M36 12h1M40 12h1M25 13h5M35 13h5M25 14h3M37 14h3M28 15h2M35 15h2M26 16h5M34 16h5M27 17h2M36 17h2M29 18h2M34 18h2M28 19h4M33 19h4M28 45h4M33 45h4M29 46h2M34 46h2M27 47h2M36 47h2M26 48h5M34 48h5M28 49h2M35 49h2M25 50h3M37 50h3M25 51h5M35 51h5M24 52h1M28 52h1M36 52h1M40 52h1M23 53h5M37 53h5M24 54h5M36 54h5M22 55h2M41 55h2M22 56h6M37 56h6M24 57h4M37 57h4M21 58h3M41 58h3M23 59h3M39 59h3M23 60h2M40 60h2" />
<path stroke="#181c28" d="M21 5h2M42 5h2M18 6h3M44 6h3M17 7h4M44 7h4M15 8h4M21 8h1M43 8h1M46 8h4M14 9h4M19 9h3M43 9h3M47 9h4M13 10h3M18 10h4M43 10h4M49 10h3M12 11h3M16 11h4M22 11h1M42 11h1M45 11h4M50 11h3M11 12h3M15 12h4M20 12h4M41 12h4M46 12h4M51 12h3M10 13h3M14 13h3M19 13h4M42 13h4M48 13h3M52 13h3M9 14h3M13 14h3M17 14h4M23 14h2M40 14h2M44 14h4M49 14h3M53 14h3M8 15h3M12 15h3M16 15h4M21 15h4M40 15h4M45 15h4M50 15h3M54 15h3M8 16h2M11 16h3M15 16h3M20 16h3M25 16h1M39 16h1M42 16h3M47 16h3M51 16h3M55 16h2M7 17h3M11 17h2M14 17h3M18 17h4M23 17h4M38 17h4M43 17h4M48 17h3M52 17h2M55 17h3M6 18h3M10 18h3M14 18h2M17 18h4M22 18h4M39 18h4M44 18h4M49 18h2M52 18h3M56 18h3M6 19h2M9 19h3M13 19h3M17 19h3M21 19h3M26 19h2M37 19h2M41 19h3M45 19h3M49 19h3M53 19h3M57 19h2M6 20h2M9 20h2M12 20h3M16 20h3M20 20h3M24 20h5M36 20h5M42 20h3M46 20h3M50 20h3M54 20h2M57 20h2M5 21h2M8 21h3M12 21h2M15 21h3M19 21h3M23 21h4M38 21h4M43 21h3M47 21h3M51 21h2M54 21h3M58 21h2M5 22h2M8 22h2M11 22h3M15 22h2M18 22h3M22 22h3M40 22h3M44 22h3M48 22h2M51 22h3M55 22h2M58 22h2M4 23h3M8 23h2M11 23h2M14 23h2M17 23h3M21 23h3M41 23h3M45 23h3M49 23h2M52 23h2M55 23h2M58 23h3M4 24h2M7 24h2M10 24h3M14 24h2M17 24h2M20 24h3M42 24h3M46 24h2M49 24h2M52 24h3M56 24h2M59 24h2M4 25h2M7 25h2M10 25h2M13 25h2M16 25h3M20 25h2M43 25h2M46 25h3M50 25h2M53 25h2M56 25h2M59 25h2M4 26h2M7 26h2M10 26h2M13 26h2M16 26h2M19 26h3M43 26h3M47 26h2M50 26h2M53 26h2M56 26h2M59 26h2M3 27h2M6 27h3M10 27h2M13 27h2M16 27h2M19 27h2M44 27h2M47 27h2M50 27h2M53 27h2M56 27h3M60 27h2M3 28h2M6 28h2M9 28h2M12 28h2M15 28h3M19 28h2M44 28h2M47 28h3M51 28h2M54 28h2M57 28h2M60 28h2M3 29h2M6 29h2M9 29h2M12 29h2M15 29h2M18 29h2M45 29h2M48 29h2M51 29h2M54 29h2M57 29h2M60 29h2M3 30h2M6 30h2M9 30h2M12 30h2M15 30h2M18 30h2M45 30h2M48 30h2M51 30h2M54 30h2M57 30h2M60 30h2M3 31h2M6 31h2M9 31h2M12 31h2M15 31h2M18 31h2M45 31h2M48 31h2M51 31h2M54 31h2M57 31h2M60 31h2M3 32h2M6 32h2M9 32h2M12 32h2M15 32h2M18 32h2M45 32h2M48 32h2M51 32h2M54 32h2M57 32h2M60 32h2M3 33h2M6 33h2M9 33h2M12 33h2M15 33h2M18 33h2M45 33h2M48 33h2M51 33h2M54 33h2M57 33h2M60 33h2M3 34h2M6 34h2M9 34h2M12 34h2M15 34h2M18 34h2M45 34h2M48 34h2M51 34h2M54 34h2M57 34h2M60 34h2M3 35h2M6 35h2M9 35h2M12 35h2M15 35h2M18 35h2M45 35h2M48 35h2M51 35h2M54 35h2M57 35h2M60 35h2M3 36h2M6 36h2M9 36h2M12 36h2M15 36h3M19 36h2M44 36h2M47 36h3M51 36h2M54 36h2M57 36h2M60 36h2M3 37h2M6 37h3M10 37h2M13 37h2M16 37h2M19 37h2M44 37h2M47 37h2M50 37h2M53 37h2M56 37h3M60 37h2M4 38h2M7 38h2M10 38h2M13 38h2M16 38h2M19 38h3M43 38h3M47 38h2M50 38h2M53 38h2M56 38h2M59 38h2M4 39h2M7 39h2M10 39h2M13 39h2M16 39h3M20 39h2M43 39h2M46 39h3M50 39h2M53 39h2M56 39h2M59 39h2M4 40h2M7 40h2M10 40h3M14 40h2M17 40h2M20 40h3M42 40h3M46 40h2M49 40h2M52 40h3M56 40h2M59 40h2M4 41h3M8 41h2M11 41h2M14 41h2M17 41h3M21 41h3M41 41h3M45 41h3M49 41h2M52 41h2M55 41h2M58 41h3M5 42h2M8 42h2M11 42h3M15 42h2M18 42h3M22 42h3M40 42h3M44 42h3M48 42h2M51 42h3M55 42h2M58 42h2M5 43h2M8 43h3M12 43h2M15 43h3M19 43h3M23 43h4M38 43h4M43 43h3M47 43h3M51 43h2M54 43h3M58 43h2M6 44h2M9 44h2M12 44h3M16 44h3M20 44h3M24 44h5M36 44h5M42 44h3M46 44h3M50 44h3M54 44h2M57 44h2M6 45h2M9 45h3M13 45h3M17 45h3M21 45h3M26 45h2M37 45h2M41 45h3M45 45h3M49 45h3M53 45h3M57 45h2M6 46h3M10 46h3M14 46h2M17 46h4M22 46h4M39 46h4M44 46h4M49 46h2M52 46h3M56 46h3M7 47h3M11 47h2M14 47h3M18 47h4M23 47h4M38 47h4M43 47h4M48 47h3M52 47h2M55 47h3M8 48h2M11 48h3M15 48h3M20 48h3M25 48h1M39 48h1M42 48h3M47 48h3M51 48h3M55 48h2M8 49h3M12 49h3M16 49h4M21 49h4M40 49h4M45 49h4M50 49h3M54 49h3M9 50h3M13 50h3M17 50h4M23 50h2M40 50h2M44 50h4M49 50h3M53 50h3M10 51h3M14 51h3M19 51h4M42 51h4M48 51h3M52 51h3M11 52h3M15 52h4M20 52h4M41 52h4M46 52h4M51 52h3M12 53h3M16 53h4M22 53h1M42 53h1M45 53h4M50 53h3M13 54h3M18 54h4M43 54h4M49 54h3M14 55h4M19 55h3M43 55h3M47 55h4M15 56h4M21 56h1M43 56h1M46 56h4M17 57h4M44 57h4M18 58h3M44 58h3" />
<path stroke="#0f0f13" d="M29 21h7M27 22h11M25 23h5M35 23h5M24 24h4M37 24h4M23 25h3M39 25h3M23 26h2M40 26h2M22 27h3M40 27h3M22 28h2M41 28h2M21 29h3M41 29h3M21 30h2M42 30h2M21 31h2M42 31h2M21 32h2M42 32h2M21 33h2M42 33h2M21 34h2M42 34h2M21 35h3M41 35h3M22 36h2M41 36h2M22 37h3M40 37h3M23 38h2M40 38h2M23 39h3M39 39h3M24 40h4M37 40h4M25 41h5M35 41h5M27 42h11M29 43h7" />
<path stroke="#ffffff" d="M30 23h5M28 24h2M35 24h2M26 25h2M37 25h2M25 26h1M39 26h1M25 27h1M39 27h1M24 28h1M40 28h1M24 29h1M40 29h1M23 30h1M41 30h1M23 31h1M32 31h1M41 31h1M23 32h1M31 32h3M41 32h1M23 33h1M32 33h1M41 33h1M23 34h1M41 34h1M24 35h1M40 35h1M24 36h1M40 36h1M25 37h1M39 37h1M25 38h1M39 38h1M26 39h2M37 39h2M28 40h2M35 40h2M30 41h5" />
<path stroke="#222034" d="M21 59h2M42 59h2" />
</svg>